<?xml version="1.0" encoding="UTF-8"?>
<svg id="a" data-name="Ebene 1" xmlns="http://www.w3.org/2000/svg" viewBox="0 0 645.63 645.63">
  <defs>
    <style>
      .b {
        fill: #323436;
      }

      .c {
        fill: #e2b714;
      }

      .d {
        fill: none;
        stroke: #e2b714;
        stroke-linecap: round;
        stroke-miterlimit: 10;
        stroke-width: 30px;
      }
    </style>
  </defs>
  <circle class="b" cx="322.82" cy="322.82" r="322.82"/>
  <path class="c" d="M322.82,219.14c57.17,0,103.68,46.51,103.68,103.68s-46.51,103.68-103.68,103.68-103.68-46.51-103.68-103.68,46.51-103.68,103.68-103.68M322.82,189.14c-73.83,0-133.68,59.85-133.68,133.68s59.85,133.68,133.68,133.68,133.68-59.85,133.68-133.68-59.85-133.68-133.68-133.68h0Z"/>
  <g>
    <line class="d" x1="322.82" y1="47.9" x2="322.82" y2="149.1"/>
    <line class="d" x1="161.23" y1="100.41" x2="220.71" y2="182.28"/>
    <line class="d" x1="61.36" y1="237.86" x2="157.6" y2="269.14"/>
    <line class="d" x1="61.36" y1="407.77" x2="157.6" y2="376.5"/>
    <line class="d" x1="161.23" y1="545.23" x2="220.71" y2="463.36"/>
    <line class="d" x1="322.82" y1="597.73" x2="322.82" y2="496.53"/>
    <line class="d" x1="484.41" y1="545.23" x2="424.92" y2="463.36"/>
    <line class="d" x1="584.27" y1="407.77" x2="488.03" y2="376.5"/>
    <line class="d" x1="584.27" y1="237.86" x2="488.03" y2="269.14"/>
    <line class="d" x1="484.41" y1="100.41" x2="424.92" y2="182.28"/>
  </g>
</svg>